<svg width="48" height="48" viewBox="0 0 48 48" fill="none" xmlns="http://www.w3.org/2000/svg">
<mask id="mask0_2003_2" style="mask-type:luminance" maskUnits="userSpaceOnUse" x="0" y="0" width="48" height="48">
<path d="M0 0H48V48H0V0Z" fill="white"/>
</mask>
<g mask="url(#mask0_2003_2)">
<path d="M8.35986 9.26843C9.15271 8.361 10.0174 7.51899 10.9457 6.75059" stroke="#9DFF3A" stroke-width="1.5" stroke-miterlimit="10" stroke-linecap="round" stroke-linejoin="round"/>
<path d="M3.41064 18.9504C3.96197 16.5539 4.90644 14.2652 6.20571 12.1773" stroke="#9DFF3A" stroke-width="1.5" stroke-miterlimit="10" stroke-linecap="round" stroke-linejoin="round"/>
<path d="M10.8061 41.1333C5.93689 37.0359 2.84033 30.8814 2.84033 24C2.84033 23.7386 2.84483 23.4783 2.85365 23.2192" stroke="#9DFF3A" stroke-width="1.5" stroke-miterlimit="10" stroke-linecap="round" stroke-linejoin="round"/>
<path d="M35.8403 43.5439C32.6495 45.3235 28.977 46.3369 25.0691 46.3369C21.1744 46.3369 17.5138 45.3304 14.3306 43.562" stroke="#9DFF3A" stroke-width="1.5" stroke-miterlimit="10" stroke-linecap="round" stroke-linejoin="round"/>
<path d="M43.9175 12.1537C46.0592 15.5875 47.2975 19.6484 47.2975 23.9999C47.2975 30.8712 44.21 37.0178 39.353 41.1152" stroke="#9DFF3A" stroke-width="1.5" stroke-miterlimit="10" stroke-linecap="round" stroke-linejoin="round"/>
<path d="M38.9951 6.58923C39.8177 7.25454 40.5921 7.97725 41.3125 8.75195" stroke="#9DFF3A" stroke-width="1.5" stroke-miterlimit="10" stroke-linecap="round" stroke-linejoin="round"/>
<path d="M14.4697 4.36145C17.6203 2.64067 21.2313 1.66314 25.0694 1.66314C28.809 1.66314 32.3329 2.59117 35.4256 4.23048" stroke="#9DFF3A" stroke-width="1.5" stroke-miterlimit="10" stroke-linecap="round" stroke-linejoin="round"/>
<path d="M26.9297 9.47144C29.4333 7.9134 32.1912 6.68884 35.155 5.87144" stroke="#9DFF3A" stroke-width="1.5" stroke-miterlimit="10" stroke-linecap="round" stroke-linejoin="round"/>
<path d="M17.8228 18.0847C19.43 15.8026 21.3322 13.7432 23.4798 11.9601" stroke="#9DFF3A" stroke-width="1.5" stroke-miterlimit="10" stroke-linecap="round" stroke-linejoin="round"/>
<path d="M12.2634 40.2014C11.4633 33.6596 12.7283 27.2742 15.5859 21.7639" stroke="#9DFF3A" stroke-width="1.5" stroke-miterlimit="10" stroke-linecap="round" stroke-linejoin="round"/>
<path d="M23.2073 9.47156C20.6191 7.86084 17.759 6.60656 14.6807 5.79" stroke="#9DFF3A" stroke-width="1.5" stroke-miterlimit="10" stroke-linecap="round" stroke-linejoin="round"/>
<path d="M35.3702 23.4637C33.3928 19.0249 30.4138 15.076 26.6587 11.9602" stroke="#9DFF3A" stroke-width="1.5" stroke-miterlimit="10" stroke-linecap="round" stroke-linejoin="round"/>
<path d="M37.7716 31.7161C37.5603 30.2883 37.2516 28.8767 36.8477 27.491" stroke="#9DFF3A" stroke-width="1.5" stroke-miterlimit="10" stroke-linecap="round" stroke-linejoin="round"/>
<path d="M37.8618 40.3079C38.0481 38.8264 38.1301 37.3337 38.1073 35.8408" stroke="#9DFF3A" stroke-width="1.5" stroke-miterlimit="10" stroke-linecap="round" stroke-linejoin="round"/>
<path d="M14.6126 19.4767C11.4105 19.4604 8.16006 19.804 4.91162 20.537" stroke="#9DFF3A" stroke-width="1.5" stroke-miterlimit="10" stroke-linecap="round" stroke-linejoin="round"/>
<path d="M34.3255 24.399C29.5584 21.8999 24.3207 20.2866 18.8721 19.7117" stroke="#9DFF3A" stroke-width="1.5" stroke-miterlimit="10" stroke-linecap="round" stroke-linejoin="round"/>
<path d="M45.5026 32.8053C43.2482 30.4517 40.7355 28.3601 38.0122 26.5699" stroke="#9DFF3A" stroke-width="1.5" stroke-miterlimit="10" stroke-linecap="round" stroke-linejoin="round"/>
<path d="M37.2583 23.587C39.3882 20.1584 41.0274 16.4484 42.128 12.565" stroke="#9DFF3A" stroke-width="1.5" stroke-miterlimit="10" stroke-linecap="round" stroke-linejoin="round"/>
<path d="M14.6123 41.6816C22.6484 38.9102 29.6806 33.8074 34.8278 27.1002" stroke="#9DFF3A" stroke-width="1.5" stroke-miterlimit="10" stroke-linecap="round" stroke-linejoin="round"/>
<path d="M25.0683 12.6737C23.8895 12.6737 22.9307 11.7101 22.9307 10.5256C22.9307 9.34117 23.8895 8.37761 25.0683 8.37761C26.247 8.37761 27.2059 9.34117 27.2059 10.5256C27.2059 11.7101 26.247 12.6737 25.0683 12.6737Z" stroke="#9DFF3A" stroke-width="1.5" stroke-miterlimit="10" stroke-linecap="round" stroke-linejoin="round"/>
<path d="M16.7499 22.1118C15.5712 22.1118 14.6123 21.1482 14.6123 19.9637C14.6123 18.7793 15.5712 17.8156 16.7499 17.8156C17.9286 17.8156 18.8875 18.7793 18.8875 19.9637C18.8875 21.1482 17.9286 22.1118 16.7499 22.1118Z" stroke="#9DFF3A" stroke-width="1.5" stroke-miterlimit="10" stroke-linecap="round" stroke-linejoin="round"/>
<path d="M36.1913 27.595C35.0126 27.595 34.0537 26.6313 34.0537 25.4469C34.0537 24.2624 35.0126 23.2988 36.1913 23.2988C37.37 23.2988 38.3289 24.2624 38.3289 25.4469C38.3289 26.6313 37.37 27.595 36.1913 27.595Z" stroke="#9DFF3A" stroke-width="1.5" stroke-miterlimit="10" stroke-linecap="round" stroke-linejoin="round"/>
<path d="M12.5834 44.4733C11.4047 44.4733 10.4458 43.5097 10.4458 42.3252C10.4458 41.1407 11.4047 40.1772 12.5834 40.1772C13.7621 40.1772 14.7211 41.1407 14.7211 42.3252C14.7211 43.5097 13.7621 44.4733 12.5834 44.4733Z" stroke="#9DFF3A" stroke-width="1.5" stroke-miterlimit="10" stroke-linecap="round" stroke-linejoin="round"/>
<path d="M37.6771 44.5957C36.4984 44.5957 35.5396 43.632 35.5396 42.4476C35.5396 41.2632 36.4984 40.2995 37.6771 40.2995C38.8559 40.2995 39.8148 41.2632 39.8148 42.4476C39.8148 43.632 38.8559 44.5957 37.6771 44.5957Z" stroke="#9DFF3A" stroke-width="1.5" stroke-miterlimit="10" stroke-linecap="round" stroke-linejoin="round"/>
<path d="M42.6611 12.5651C41.4824 12.5651 40.5234 11.6014 40.5234 10.417C40.5234 9.23253 41.4824 8.26888 42.6611 8.26888C43.8398 8.26888 44.7987 9.23253 44.7987 10.417C44.7987 11.6014 43.8398 12.5651 42.6611 12.5651Z" stroke="#9DFF3A" stroke-width="1.5" stroke-miterlimit="10" stroke-linecap="round" stroke-linejoin="round"/>
<path d="M37.2343 7.52063C36.0556 7.52063 35.0967 6.55707 35.0967 5.37254C35.0967 4.1881 36.0556 3.22454 37.2343 3.22454C38.413 3.22454 39.372 4.1881 39.372 5.37254C39.372 6.55707 38.413 7.52063 37.2343 7.52063Z" stroke="#9DFF3A" stroke-width="1.5" stroke-miterlimit="10" stroke-linecap="round" stroke-linejoin="round"/>
<path d="M12.5834 7.52063C11.4047 7.52063 10.4458 6.55707 10.4458 5.37254C10.4458 4.1881 11.4047 3.22454 12.5834 3.22454C13.7621 3.22454 14.7211 4.1881 14.7211 5.37254C14.7211 6.55707 13.7621 7.52063 12.5834 7.52063Z" stroke="#9DFF3A" stroke-width="1.5" stroke-miterlimit="10" stroke-linecap="round" stroke-linejoin="round"/>
<path d="M2.84072 23.2186C1.662 23.2186 0.703125 22.2551 0.703125 21.0705C0.703125 19.8861 1.662 18.9225 2.84072 18.9225C4.01944 18.9225 4.97831 19.8861 4.97831 21.0705C4.97831 22.2551 4.01944 23.2186 2.84072 23.2186Z" stroke="#9DFF3A" stroke-width="1.5" stroke-miterlimit="10" stroke-linecap="round" stroke-linejoin="round"/>
</g>
</svg>
