<svg width="30" height="30" viewBox="0 0 30 30" fill="none" xmlns="http://www.w3.org/2000/svg">
<path d="M15 27.5C12.1042 26.7708 9.71333 25.1092 7.8275 22.515C5.94167 19.9208 4.99917 17.0408 5 13.875V6.25L15 2.5L25 6.25V13.875C25 17.0417 24.0575 19.9221 22.1725 22.5163C20.2875 25.1104 17.8967 26.7717 15 27.5ZM15 24.875C17.0208 24.25 18.7083 23.0154 20.0625 21.1712C21.4167 19.3271 22.2083 17.27 22.4375 15H15V5.15625L7.5 7.96875V14.4375C7.5 14.5833 7.52083 14.7708 7.5625 15H15V24.875Z" fill="#9DFF3A"/>
</svg>
