<svg width="30" height="30" viewBox="0 0 30 30" fill="none" xmlns="http://www.w3.org/2000/svg">
<path d="M15 27.5C15.305 27.5 15.5887 27.3587 16.1575 27.075L20.72 24.8038C22.7413 23.8 23.75 23.2963 23.75 22.5V12.5M15 27.5C14.695 27.5 14.4113 27.3587 13.8425 27.075L9.28 24.8038C7.25875 23.8 6.25 23.2963 6.25 22.5V12.5M15 27.5V17.5M23.75 12.5C23.75 11.7037 22.74 11.2012 20.7212 10.1962L16.1575 7.92375C15.5875 7.64125 15.305 7.5 15 7.5M23.75 12.5C23.75 13.2963 22.74 13.7988 20.7212 14.8038L16.1575 17.0763C15.5887 17.3588 15.305 17.5 15 17.5M6.25 12.5C6.25 11.7037 7.25875 11.2 9.28 10.1962L13.8425 7.925C14.4113 7.64125 14.695 7.5 15 7.5M6.25 12.5C6.25 13.2963 7.26 13.7988 9.27875 14.8038L13.8425 17.0763C14.4113 17.3588 14.695 17.5 15 17.5M15 7.5V2.5M27.5 26.25L23.75 23.125M2.5 26.25L6.25 23.125" stroke="#9DFF3A" stroke-width="1.875" stroke-linecap="round" stroke-linejoin="round"/>
</svg>
